<svg version="1.1" id="Layer_1" xmlns="http://www.w3.org/2000/svg" xmlns:xlink="http://www.w3.org/1999/xlink" x="0px" y="0px"
	 width="100%" viewBox="0 0 225 225" enable-background="new 0 0 225 225" xml:space="preserve">
<path fill="#FF3507" opacity="1.000000" stroke="none" 
	d="
M157.000000,226.000000 
	C104.666672,226.000000 52.833340,226.000000 1.000007,226.000000 
	C1.000005,151.000000 1.000005,76.000015 1.000002,1.000017 
	C75.999992,1.000011 150.999985,1.000011 225.999969,1.000006 
	C225.999985,75.999985 225.999985,150.999969 226.000000,225.999969 
	C203.166672,226.000000 180.333328,226.000000 157.000000,226.000000 
M71.261528,46.447357 
	C59.854893,47.174145 53.527187,53.285896 50.762547,64.832375 
	C47.136326,79.977226 53.488449,88.649376 68.682465,90.982430 
	C84.917664,93.475349 101.160225,93.126869 117.454140,92.508713 
	C121.562897,92.352837 125.682602,92.485382 129.500488,92.485382 
	C132.099731,98.627190 129.979401,103.257072 127.506332,107.888802 
	C127.029602,108.781662 127.161125,109.999283 127.012054,111.067093 
	C128.075745,111.196785 129.179230,111.578110 130.196976,111.417206 
	C140.248062,109.828178 149.491302,106.370888 156.790237,98.972694 
	C161.454727,94.244766 165.696167,89.093979 170.432388,84.443512 
	C177.928314,77.083305 177.470673,68.411568 174.841843,59.464451 
	C172.254272,50.657722 170.898514,50.049068 161.626968,49.056595 
	C151.740448,47.998287 141.904510,46.467609 131.394714,44.611000 
	C124.586357,44.778347 117.778000,44.945694 110.191895,45.413364 
	C105.785553,45.567066 101.379204,45.720768 96.277229,45.440254 
	C88.172066,45.665718 80.066895,45.891178 71.261528,46.447357 
M99.514450,133.602539 
	C98.631989,133.415573 97.749527,133.228592 96.373909,132.416656 
	C97.363335,126.798172 98.352760,121.179688 99.401733,115.223091 
	C88.451729,116.266525 78.447121,119.649269 70.416870,127.518059 
	C65.557114,132.280090 61.267162,137.626938 56.369946,142.346542 
	C50.287350,148.208527 49.406689,155.278137 50.715122,162.994110 
	C51.127571,165.426407 52.261318,167.736816 52.669163,170.169357 
	C53.431541,174.716553 56.314041,176.605316 60.527439,177.137085 
	C70.906509,178.446960 81.251900,180.353668 91.671104,180.929092 
	C103.753403,181.596375 115.900070,181.097977 128.710602,181.550186 
	C136.481842,181.342819 144.253067,181.135452 152.794876,180.639053 
	C164.270874,180.562546 172.430695,175.519699 175.349045,164.171631 
	C176.507172,159.668243 176.395920,154.612473 175.817047,149.937653 
	C174.767792,141.464279 171.664200,138.034317 163.138916,137.082016 
	C149.472015,135.555420 135.708145,134.896866 121.289024,133.434128 
	C115.179832,133.659790 109.070633,133.885437 102.244133,134.352463 
	C101.504051,134.256058 100.763962,134.159653 99.514450,133.602539 
z"/>
<path fill="#FFFDFD" opacity="1.000000" stroke="none" 
	d="
M128.018799,181.105576 
	C115.900070,181.097977 103.753403,181.596375 91.671104,180.929092 
	C81.251900,180.353668 70.906509,178.446960 60.527439,177.137085 
	C56.314041,176.605316 53.431541,174.716553 52.669163,170.169357 
	C52.261318,167.736816 51.127571,165.426407 50.715122,162.994110 
	C49.406689,155.278137 50.287350,148.208527 56.369946,142.346542 
	C61.267162,137.626938 65.557114,132.280090 70.416870,127.518059 
	C78.447121,119.649269 88.451729,116.266525 99.401733,115.223091 
	C98.352760,121.179688 97.363335,126.798172 96.747345,133.080765 
	C98.088478,133.850998 99.056183,133.957123 100.023880,134.063248 
	C100.763962,134.159653 101.504051,134.256058 103.063324,134.341766 
	C109.916756,134.177872 115.951012,134.024643 121.985260,133.871429 
	C135.708145,134.896866 149.472015,135.555420 163.138916,137.082016 
	C171.664200,138.034317 174.767792,141.464279 175.817047,149.937653 
	C176.395920,154.612473 176.507172,159.668243 175.349045,164.171631 
	C172.430695,175.519699 164.270874,180.562546 151.946976,180.690247 
	C143.405655,180.862808 135.712219,180.984192 128.018799,181.105576 
z"/>
<path fill="#FFFDFD" opacity="1.000000" stroke="none" 
	d="
M96.972862,45.874470 
	C101.379204,45.720768 105.785553,45.567066 111.045319,45.346306 
	C118.614655,45.233883 125.330566,45.188519 132.046478,45.143154 
	C141.904510,46.467609 151.740448,47.998287 161.626968,49.056595 
	C170.898514,50.049068 172.254272,50.657722 174.841843,59.464451 
	C177.470673,68.411568 177.928314,77.083305 170.432388,84.443512 
	C165.696167,89.093979 161.454727,94.244766 156.790237,98.972694 
	C149.491302,106.370888 140.248062,109.828178 130.196976,111.417206 
	C129.179230,111.578110 128.075745,111.196785 127.012054,111.067093 
	C127.161125,109.999283 127.029602,108.781662 127.506332,107.888802 
	C129.979401,103.257072 132.099731,98.627190 129.500488,92.485382 
	C125.682602,92.485382 121.562897,92.352837 117.454140,92.508713 
	C101.160225,93.126869 84.917664,93.475349 68.682465,90.982430 
	C53.488449,88.649376 47.136326,79.977226 50.762547,64.832375 
	C53.527187,53.285896 59.854893,47.174145 72.078041,46.358391 
	C80.920654,46.137775 88.946762,46.006123 96.972862,45.874470 
z"/>
<path fill="#FF2200" opacity="1.000000" stroke="none" 
	d="
M96.625046,45.657364 
	C88.946762,46.006123 80.920654,46.137775 72.428146,46.193031 
	C80.066895,45.891178 88.172066,45.665718 96.625046,45.657364 
z"/>
<path fill="#FF2400" opacity="1.000000" stroke="none" 
	d="
M128.364700,181.327881 
	C135.712219,180.984192 143.405655,180.862808 151.561691,180.834763 
	C144.253067,181.135452 136.481842,181.342819 128.364700,181.327881 
z"/>
<path fill="#FF2500" opacity="1.000000" stroke="none" 
	d="
M131.720596,44.877075 
	C125.330566,45.188519 118.614655,45.233883 111.434189,45.196144 
	C117.778000,44.945694 124.586357,44.778347 131.720596,44.877075 
z"/>
<path fill="#FF2300" opacity="1.000000" stroke="none" 
	d="
M121.637146,133.652771 
	C115.951012,134.024643 109.916756,134.177872 103.421974,134.221085 
	C109.070633,133.885437 115.179832,133.659790 121.637146,133.652771 
z"/>
<path fill="#FF2300" opacity="1.000000" stroke="none" 
	d="
M99.769165,133.832886 
	C99.056183,133.957123 98.088478,133.850998 96.993927,133.393250 
	C97.749527,133.228592 98.631989,133.415573 99.769165,133.832886 
z"/>
</svg>